<svg width="40" height="40" viewBox="0 0 40 40" fill="none" xmlns="http://www.w3.org/2000/svg">
<g clip-path="url(#clip0_310_245)">
<path d="M20 37.5C29.665 37.5 37.5 29.665 37.5 20C37.5 10.335 29.665 2.5 20 2.5C10.335 2.5 2.5 10.335 2.5 20C2.5 29.665 10.335 37.5 20 37.5Z" fill="#FF5543"/>
<path d="M24.9435 13.443C23.8037 13.9746 23.2674 14.5431 22.822 15.0503C22.5651 15.3428 22.2005 15.2081 22.2036 14.7921C22.2103 13.8934 22.7656 12.6719 24.2591 11.9754C25.7526 11.279 27.0454 11.6388 27.7381 12.2113C28.0587 12.4763 27.9276 12.8422 27.5384 12.851C26.8636 12.8662 26.0833 12.9115 24.9435 13.443Z" fill="black"/>
<path d="M15.0565 13.443C16.1963 13.9746 16.7326 14.5431 17.178 15.0503C17.4349 15.3428 17.7995 15.2081 17.7964 14.7921C17.7897 13.8934 17.2343 12.6719 15.7408 11.9754C14.2473 11.279 12.9546 11.6388 12.2619 12.2113C11.9413 12.4763 12.0724 12.8422 12.4616 12.851C13.1364 12.8662 13.9167 12.9115 15.0565 13.443Z" fill="black"/>
<path d="M24.7458 19.2508C25.942 19.2508 26.9118 18.2811 26.9118 17.0849C26.9118 15.8887 25.942 14.9189 24.7458 14.9189C23.5496 14.9189 22.5799 15.8887 22.5799 17.0849C22.5799 18.2811 23.5496 19.2508 24.7458 19.2508Z" fill="black"/>
<path d="M15.2541 19.2508C16.4504 19.2508 17.4201 18.2811 17.4201 17.0849C17.4201 15.8887 16.4504 14.9189 15.2541 14.9189C14.0579 14.9189 13.0882 15.8887 13.0882 17.0849C13.0882 18.2811 14.0579 19.2508 15.2541 19.2508Z" fill="black"/>
<path d="M32.4377 21.5667H7.56227C5.87103 21.5667 4.5 22.9377 4.5 24.6289V30.6044C4.5 32.2956 5.87103 33.6666 7.56227 33.6666H32.4377C34.129 33.6666 35.5 32.2956 35.5 30.6044V24.6289C35.5 22.9377 34.129 21.5667 32.4377 21.5667Z" fill="black"/>
<path d="M12.8693 25.804H12.3733L12.5852 24.7495C12.5996 24.6869 12.6044 24.5955 12.6044 24.5329C12.6044 24.2151 12.3974 24.0081 12.0411 24.0081C11.6559 24.0081 11.4248 24.2006 11.3478 24.6099L11.1071 25.804H10.0285L10.2356 24.7495C10.25 24.6869 10.2596 24.5955 10.2596 24.5329C10.2596 24.2151 10.0478 24.0081 9.69149 24.0081C9.3063 24.0081 9.07519 24.2006 8.99816 24.6099L8.7526 25.804H8.16038C7.70779 25.804 7.43334 26.0688 7.43334 26.4829C7.43334 26.8055 7.65964 27.0221 8.02556 27.0221H8.51667L8.30963 28.0862H7.72222C7.26963 28.0862 7 28.351 7 28.7603C7 29.0877 7.22148 29.2947 7.59222 29.2947H8.06889L7.84259 30.4358C7.82815 30.4984 7.82333 30.5899 7.82333 30.6525C7.82333 30.9703 8.03037 31.1773 8.38666 31.1773C8.77185 31.1773 9.00296 30.9847 9.07999 30.5803L9.33518 29.2947H10.4233L10.1922 30.4358C10.1778 30.4984 10.173 30.5899 10.173 30.6525C10.173 30.9703 10.38 31.1773 10.7363 31.1773C11.1215 31.1773 11.3526 30.9847 11.4296 30.5754L11.6896 29.2947H12.2963C12.7489 29.2947 13.0233 29.0299 13.0233 28.6158C13.0233 28.2884 12.797 28.0765 12.4311 28.0765H11.9255L12.1326 27.0125H12.7393C13.1919 27.0125 13.4615 26.7477 13.4615 26.3384C13.4615 26.011 13.24 25.804 12.8693 25.804ZM10.7267 28.2066H9.44594L9.71075 26.8873H10.9963L10.7267 28.2066Z" fill="white"/>
<path d="M14.4197 28.0766C14.4341 28.5725 14.6797 28.8614 15.1708 28.8614C15.6571 28.8614 15.9074 28.5725 15.9219 28.0766L16.0085 25.0818C16.0134 25.0047 16.0182 24.9181 16.0182 24.8555C16.0182 24.321 15.7052 24.0081 15.1756 24.0081C14.6411 24.0081 14.3234 24.321 14.3234 24.8555C14.3234 24.9181 14.3282 25.0047 14.3282 25.0818L14.4197 28.0766Z" fill="white"/>
<path d="M15.1708 29.4968C14.6652 29.4968 14.256 29.8772 14.256 30.3587C14.256 30.845 14.6652 31.2253 15.1708 31.2253C15.6715 31.2253 16.0808 30.845 16.0808 30.3587C16.0808 29.8772 15.6715 29.4968 15.1708 29.4968Z" fill="white"/>
<path d="M22.6193 27.0366C22.1811 27.0366 21.9548 27.3014 21.9404 27.7636C21.9307 28.168 21.8585 28.4473 21.7285 28.6688L20.6163 27.4699C21.5263 26.9643 21.9789 26.3625 21.9789 25.6499C21.9789 24.6966 21.1507 24.0417 19.947 24.0417C18.7481 24.0417 17.867 24.7399 17.867 25.6932C17.867 26.2036 18.0981 26.6321 18.7289 27.2725C18.7193 27.2725 18.4304 27.4362 18.3918 27.4554C17.5252 27.9417 17.1448 28.4858 17.1448 29.2658C17.1448 30.4599 18.0933 31.1966 19.6196 31.1966C20.4718 31.1966 21.2518 30.9606 21.7285 30.5562L22.0415 30.8836C22.2485 31.1051 22.4026 31.1773 22.6481 31.1773C23.0333 31.1773 23.3029 30.8884 23.3029 30.5658C23.3029 30.3973 23.2596 30.2625 23.0526 30.0458L22.7059 29.6847C23.0766 29.208 23.3029 28.4858 23.3029 27.7684C23.3029 27.3447 23.0574 27.0366 22.6193 27.0366ZM19.9567 25.1106C20.3467 25.1106 20.6211 25.3899 20.6211 25.7799C20.6211 26.1603 20.39 26.4491 19.87 26.7236C19.4318 26.3095 19.2778 26.0688 19.2778 25.7799C19.2778 25.3947 19.5618 25.1106 19.9567 25.1106ZM19.7978 30.0169C19.143 30.0169 18.7 29.6606 18.7 29.1214C18.7 28.7506 18.8733 28.4858 19.3018 28.2114C19.3404 28.1873 19.4222 28.144 19.4752 28.1247L20.8715 29.6221C20.6596 29.8677 20.2359 30.0169 19.7978 30.0169Z" fill="white"/>
<path d="M32.5073 27.0206H31.9111L32.2826 25.0578C32.297 24.9807 32.3018 24.9037 32.3018 24.8315C32.3018 24.4126 32.0226 24.1237 31.5604 24.1237C31.18 24.1237 30.8815 24.3789 30.8333 24.7593L30.5287 27.0206H29.7556L29.3022 24.8219C29.2107 24.3596 28.9363 24.1189 28.5126 24.1189C28.0889 24.1189 27.8241 24.3645 27.7326 24.8267L27.2792 27.0206H26.5056L26.1966 24.7593C26.1485 24.3837 25.8548 24.1237 25.4696 24.1237C25.0122 24.1237 24.7329 24.4126 24.7329 24.8315C24.7329 24.9037 24.7377 24.9807 24.7522 25.0578L25.1194 27.0206H24.5275C24.2555 27.0206 24.0348 27.2413 24.0348 27.5133C24.0348 27.7854 24.2555 28.0061 24.5275 28.0061H25.3059L25.72 30.2048C25.8211 30.7345 26.1966 31.033 26.6781 31.033C27.1548 31.033 27.5304 30.7393 27.6363 30.2097L28.089 28.0061H28.9458L29.3985 30.2097C29.4996 30.7393 29.8752 31.033 30.3566 31.033C30.8333 31.033 31.2137 30.7345 31.31 30.2048L31.7241 28.0061H32.5073C32.7793 28.0061 33 27.7854 33 27.5133C33 27.2413 32.7793 27.0206 32.5073 27.0206ZM28.4933 26.0256H28.5367L28.7439 27.0206H28.2898L28.4933 26.0256ZM26.8322 29.1696H26.7985L26.6394 28.0061H27.0728L26.8322 29.1696ZM30.2363 29.1696H30.1978L29.9572 28.0061H30.3914L30.2363 29.1696Z" fill="white"/>
</g>
<defs>
<clipPath id="clip0_310_245">
<rect width="40" height="40" fill="white"/>
</clipPath>
</defs>
</svg>
