<svg width="40" height="40" viewBox="0 0 40 40" fill="none" xmlns="http://www.w3.org/2000/svg">
<g clip-path="url(#clip0_310_296)">
<path d="M2.75063 6.27939L5.56009 16.444L15.0294 8.62174L5.57799 3.94381C4.02228 3.17382 2.28819 4.60629 2.75063 6.27939Z" fill="#2272EB"/>
<path d="M27.1418 27.613H22.5467C22.0368 27.613 21.6242 27.2003 21.6242 26.6904C21.6242 26.1805 22.0368 25.7679 22.5467 25.7679H34.0856C34.2553 25.7679 34.4179 25.7416 34.5759 25.7029C34.8705 24.483 35.0436 23.2159 35.0436 21.9055C35.0436 21.893 35.0417 21.8811 35.0417 21.8685C34.7559 21.7172 34.4318 21.6287 34.0856 21.6287C32.9441 21.6287 32.0162 22.5571 32.0162 23.6985C32.0162 24.2084 31.6036 24.621 31.0936 24.621C30.5837 24.621 30.1711 24.2084 30.1711 23.6985C30.1711 21.5399 31.927 19.7836 34.0856 19.7836C34.3674 19.7836 34.6384 19.8237 34.9031 19.8807C33.905 11.9224 27.1282 5.76123 18.8993 5.76123C9.98315 5.76124 2.75513 12.9893 2.75513 21.9055C2.75513 30.8218 9.98316 38.0498 18.8994 38.0498C25.8032 38.0498 31.6782 33.7083 33.986 27.613H27.1418Z" fill="#FFC84D"/>
<path d="M18.7084 5.06257L17.3381 3.42866C17.0529 3.08864 16.5461 3.04417 16.2061 3.32934L14.5722 4.69967C14.2321 4.98484 14.1877 5.49167 14.4728 5.8317L15.8432 7.4656C16.1283 7.80563 16.6352 7.85009 16.9752 7.56492L18.6091 6.19459C18.9491 5.90942 18.9936 5.40259 18.7084 5.06257Z" fill="#B44BD7"/>
<path d="M29.9494 7.13334L27.5695 8.33379C27.0742 8.58361 26.8752 9.18765 27.125 9.68294L28.3255 12.0629C28.5753 12.5582 29.1793 12.7572 29.6746 12.5074L32.0546 11.3069C32.5499 11.0571 32.7489 10.4531 32.499 9.95776L31.2986 7.5778C31.0488 7.0825 30.4447 6.88351 29.9494 7.13334Z" fill="#F66570"/>
<path d="M15.865 31.1587L13.7898 31.6495C13.358 31.7517 13.0907 32.1846 13.1928 32.6164L13.6837 34.6916C13.7858 35.1235 14.2187 35.3908 14.6506 35.2887L16.7258 34.7978C17.1577 34.6957 17.425 34.2627 17.3228 33.8309L16.832 31.7557C16.7298 31.3238 16.2969 31.0565 15.865 31.1587Z" fill="white"/>
<path d="M7.30975 29.0086L6.50227 26.4682C6.33422 25.9396 5.76943 25.6472 5.24076 25.8153L2.70043 26.6227C2.17176 26.7908 1.87942 27.3556 2.04747 27.8842L2.85495 30.4246C3.02299 30.9532 3.58779 31.2456 4.11645 31.0775L6.65678 30.2701C7.18545 30.102 7.47779 29.5372 7.30975 29.0086Z" fill="#6376FF"/>
<path d="M37.7183 22.2607C37.2414 21.0604 36.1883 20.1576 34.9031 19.8807C34.6384 19.8237 34.3674 19.7837 34.0856 19.7837C31.927 19.7837 30.1711 21.54 30.1711 23.6986C30.1711 24.2085 30.5837 24.6211 31.0936 24.6211C31.6036 24.6211 32.0162 24.2085 32.0162 23.6986C32.0162 22.5571 32.9441 21.6287 34.0856 21.6287C34.4318 21.6287 34.7559 21.7172 35.0418 21.8686C35.5512 22.1384 35.9357 22.6138 36.0829 23.1855C36.1253 23.3505 36.155 23.5205 36.155 23.6986C36.155 24.6703 35.48 25.4815 34.5759 25.7029C34.4179 25.7416 34.2553 25.7679 34.0856 25.7679H22.5468C22.5106 25.7679 22.4799 25.7845 22.4448 25.7885C22.2692 25.9321 22.0859 26.0637 21.913 26.1942C22.3447 26.5201 22.8803 27.0229 23.1693 27.613H34.0856C36.2441 27.613 38 25.8571 38 23.6985C38 23.19 37.8955 22.707 37.7183 22.2607Z" fill="#2272EB"/>
<path d="M22.8786 4.95908C23.7094 4.95908 24.383 4.28551 24.383 3.45464C24.383 2.62376 23.7094 1.9502 22.8786 1.9502C22.0477 1.9502 21.3741 2.62376 21.3741 3.45464C21.3741 4.28551 22.0477 4.95908 22.8786 4.95908Z" fill="#EDCCF8"/>
<path d="M4.91075 36.2611C5.74163 36.2611 6.41519 35.5875 6.41519 34.7566C6.41519 33.9258 5.74163 33.2522 4.91075 33.2522C4.07987 33.2522 3.40631 33.9258 3.40631 34.7566C3.40631 35.5875 4.07987 36.2611 4.91075 36.2611Z" fill="#EDCCF8"/>
<path d="M32.9386 35.9481C33.7695 35.9481 34.443 35.2745 34.443 34.4436C34.443 33.6128 33.7695 32.9392 32.9386 32.9392C32.1077 32.9392 31.4341 33.6128 31.4341 34.4436C31.4341 35.2745 32.1077 35.9481 32.9386 35.9481Z" fill="#B44BD7"/>
<path d="M35.6768 14.7342C36.5077 14.7342 37.1813 14.0607 37.1813 13.2298C37.1813 12.3989 36.5077 11.7253 35.6768 11.7253C34.846 11.7253 34.1724 12.3989 34.1724 13.2298C34.1724 14.0607 34.846 14.7342 35.6768 14.7342Z" fill="#7896FF"/>
<path d="M21.913 26.194C22.0859 26.0635 22.2692 25.932 22.4448 25.7883C22.9224 25.3975 23.3367 24.9094 23.2845 24.0491C23.1871 22.4444 20.6351 21.9924 20.2996 21.9924C19.9546 21.9924 19.74 22.025 19.7369 22.235C19.7336 22.445 19.9858 22.5168 20.3475 22.6259C21.4543 22.96 21.8906 23.6072 21.8906 24.0679C21.8906 24.9078 21.0693 25.324 20.603 25.6238C20.2237 25.8678 19.9837 25.9265 19.9745 26.1342C19.9666 26.3114 20.2142 26.402 20.6014 26.6478C20.9886 26.8937 21.8284 27.448 21.8284 28.3825C21.8284 29.1042 21.216 29.6485 20.3467 29.9935C19.8254 30.2005 19.6259 30.2922 19.6568 30.4908C19.6877 30.6894 19.9691 30.7294 20.4321 30.7294C21.2151 30.7294 23.2501 30.308 23.3753 28.5336C23.3981 28.2111 23.311 27.9023 23.1693 27.6129C22.8803 27.0227 22.3447 26.52 21.913 26.194Z" fill="#FF8800"/>
<path d="M11.711 19.1878C11.4746 19.3313 11.1719 19.1422 11.2032 18.8675C11.3767 17.3407 12.5688 16.1012 14.1148 15.9659C15.6608 15.8307 17.05 16.8443 17.4861 18.3178C17.5645 18.583 17.2993 18.8217 17.0416 18.7214C16.4792 18.5025 15.5306 18.2473 14.3237 18.3529C13.1167 18.4585 12.2269 18.8745 11.711 19.1878Z" fill="black"/>
<path d="M27.0922 19.1878C27.3285 19.3313 27.6312 19.1422 27.6 18.8675C27.4265 17.3407 26.2343 16.1012 24.6884 15.9659C23.1424 15.8307 21.7531 16.8443 21.3171 18.3178C21.2386 18.583 21.5039 18.8217 21.7616 18.7214C22.324 18.5025 23.2725 18.2473 24.4795 18.3529C25.6865 18.4585 26.5763 18.8745 27.0922 19.1878Z" fill="black"/>
</g>
<defs>
<clipPath id="clip0_310_296">
<rect width="40" height="40" fill="white"/>
</clipPath>
</defs>
</svg>
