<svg width="40" height="40" viewBox="0 0 40 40" fill="none" xmlns="http://www.w3.org/2000/svg">
<g clip-path="url(#clip0_310_260)">
<path d="M20 37.494C29.665 37.494 37.5 29.6616 37.5 19.9999C37.5 10.3382 29.665 2.50586 20 2.50586C10.335 2.50586 2.5 10.3382 2.5 19.9999C2.5 29.6616 10.335 37.494 20 37.494Z" fill="#FFC84D"/>
<path d="M10.7303 21.8728C9.57759 21.8728 9.04421 22.5238 9.27227 23.2333C10.2817 26.3738 14.7011 28.7385 20 28.7385C25.2989 28.7385 29.7183 26.3738 30.7277 23.2333C30.9558 22.5238 30.6563 21.9645 29.5036 21.9645L10.7303 21.8728Z" fill="#FF6D00"/>
<path d="M23.807 15.6829C25.003 15.6829 25.9726 14.7134 25.9726 13.5174C25.9726 12.3214 25.003 11.3518 23.807 11.3518C22.611 11.3518 21.6414 12.3214 21.6414 13.5174C21.6414 14.7134 22.611 15.6829 23.807 15.6829Z" fill="black"/>
<path d="M15.5872 18.7616C16.7421 18.7616 17.6783 17.8253 17.6783 16.6705C17.6783 15.5156 16.7421 14.5793 15.5872 14.5793C14.4323 14.5793 13.4961 15.5156 13.4961 16.6705C13.4961 17.8253 14.4323 18.7616 15.5872 18.7616Z" fill="black"/>
<path d="M13.0033 28.5129C13.0033 31.0027 15.0843 33.0211 17.6514 33.0211C20.2185 33.0211 22.2995 31.0027 22.2995 28.5129L22.354 23.2485H13.0578L13.0033 28.5129Z" fill="#F5172B"/>
<path d="M29.5036 21.9645C27.5104 23.4569 24.0775 24.4422 20.1768 24.4422C16.1968 24.4422 12.7038 23.4164 10.7303 21.8728L29.5036 21.9645Z" fill="white"/>
</g>
<defs>
<clipPath id="clip0_310_260">
<rect width="40" height="40" fill="white"/>
</clipPath>
</defs>
</svg>
