<svg width="40" height="40" viewBox="0 0 40 40" fill="none" xmlns="http://www.w3.org/2000/svg">
<g clip-path="url(#clip0_310_313)">
<path d="M19.7806 37.5C29.4456 37.5 37.2806 29.665 37.2806 20C37.2806 10.335 29.4456 2.5 19.7806 2.5C10.1156 2.5 2.28058 10.335 2.28058 20C2.28058 29.665 10.1156 37.5 19.7806 37.5Z" fill="#FFC84D"/>
<path d="M12.1133 18.424C11.878 18.5669 11.5766 18.3787 11.6077 18.1051C11.7805 16.585 12.9674 15.351 14.5065 15.2164C16.0457 15.0817 17.4288 16.0909 17.8629 17.5578C17.941 17.8218 17.6769 18.0595 17.4204 17.9597C16.8604 17.7417 15.9161 17.4877 14.7144 17.5928C13.5128 17.698 12.6269 18.1121 12.1133 18.424Z" fill="black"/>
<path d="M27.4479 18.424C27.6832 18.5669 27.9845 18.3787 27.9535 18.1051C27.7807 16.585 26.5938 15.351 25.0547 15.2164C23.5155 15.0817 22.1324 16.0909 21.6983 17.5578C21.6201 17.8218 21.8842 18.0595 22.1408 17.9597C22.7007 17.7417 23.6451 17.4877 24.8467 17.5928C26.0484 17.698 26.9343 18.1121 27.4479 18.424Z" fill="black"/>
<path d="M32.1841 35.6821C31.95 35.8368 31.6477 35.8368 31.4136 35.6821C30.6704 35.191 29.0506 34.0177 28.3534 32.7048C27.4336 30.9726 28.5139 29.2449 29.9411 29.2449C30.7548 29.2449 31.2446 29.67 31.5152 30.0355C31.6579 30.2282 31.9398 30.2282 32.0825 30.0355C32.3531 29.67 32.8428 29.2449 33.6565 29.2449C35.0838 29.2449 36.164 30.9726 35.2442 32.7048C34.5471 34.0177 32.9273 35.191 32.1841 35.6821Z" fill="#F5172B"/>
<path d="M33.3696 14.2038C33.0228 14.433 32.5749 14.433 32.2281 14.2038C31.127 13.4764 28.7274 11.7381 27.6945 9.79305C26.3319 7.22687 27.9322 4.66724 30.0467 4.66724C31.2522 4.66724 31.9777 5.29707 32.3786 5.83857C32.59 6.12398 33.0077 6.12398 33.219 5.83857C33.62 5.29707 34.3455 4.66724 35.551 4.66724C37.6655 4.66724 39.2658 7.22687 37.9031 9.79305C36.8703 11.7381 34.4706 13.4764 33.3696 14.2038Z" fill="#F5172B"/>
<path d="M6.22689 31.0331C5.96678 31.2049 5.63088 31.2049 5.37077 31.0331C4.54498 30.4875 2.74525 29.1838 1.9706 27.725C0.948603 25.8003 2.14885 23.8806 3.73471 23.8806C4.63884 23.8806 5.18296 24.353 5.48369 24.7591C5.6422 24.9732 5.95546 24.9732 6.11397 24.7591C6.4147 24.353 6.95882 23.8806 7.86295 23.8806C9.44881 23.8806 10.6491 25.8003 9.62706 27.725C8.85241 29.1838 7.05268 30.4875 6.22689 31.0331Z" fill="#F5172B"/>
<path d="M19.7806 24.4962C16.8015 24.4962 14.5938 23.9627 13.2743 23.5198C12.6728 23.3179 12.2072 24.0634 12.6547 24.5131C13.9697 25.834 16.7366 26.9717 19.7806 26.9717C22.8246 26.9717 25.5915 25.834 26.9064 24.5131C27.354 24.0634 26.8883 23.3179 26.2869 23.5198C24.9673 23.9627 22.7597 24.4962 19.7806 24.4962Z" fill="#FF8800"/>
</g>
<defs>
<clipPath id="clip0_310_313">
<rect width="40" height="40" fill="white"/>
</clipPath>
</defs>
</svg>
