<svg width="40" height="40" viewBox="0 0 40 40" fill="none" xmlns="http://www.w3.org/2000/svg">
<g clip-path="url(#clip0_310_340)">
<path d="M20 37.5C29.665 37.5 37.5 29.665 37.5 20C37.5 10.335 29.665 2.5 20 2.5C10.335 2.5 2.5 10.335 2.5 20C2.5 29.665 10.335 37.5 20 37.5Z" fill="#FFC84D"/>
<path d="M13.2179 13.5707C12.0781 14.1022 11.5418 14.6708 11.0964 15.178C10.8395 15.4705 10.475 15.3357 10.478 14.9197C10.4847 14.0211 11.0401 12.7996 12.5336 12.1031C14.0271 11.4067 15.3198 11.7665 16.0125 12.339C16.3332 12.604 16.202 12.9699 15.8129 12.9787C15.138 12.9939 14.3578 13.0392 13.2179 13.5707Z" fill="black"/>
<path d="M26.7821 13.5707C27.9219 14.1022 28.4582 14.6708 28.9036 15.178C29.1605 15.4705 29.5251 15.3357 29.522 14.9197C29.5153 14.0211 28.9599 12.7996 27.4664 12.1031C25.9729 11.4067 24.6802 11.7665 23.9875 12.339C23.6668 12.604 23.798 12.9699 24.1871 12.9787C24.862 12.9939 25.6422 13.0392 26.7821 13.5707Z" fill="black"/>
<path d="M20 31.4326C21.3807 31.4326 22.5 30.3133 22.5 28.9326C22.5 27.5519 21.3807 26.4326 20 26.4326C18.6193 26.4326 17.5 27.5519 17.5 28.9326C17.5 30.3133 18.6193 31.4326 20 31.4326Z" fill="#FF6D00"/>
<path d="M23.0742 19.6487L25.7308 35.4565C27.3109 34.8702 28.7751 34.0537 30.0843 33.0397L27.8337 19.6487H23.0742Z" fill="white"/>
<path d="M12.1663 19.6487L9.91571 33.0397C11.2249 34.0537 12.6891 34.8702 14.2692 35.4565L16.9258 19.6487H12.1663Z" fill="white"/>
<path d="M28.2791 20.0993C28.541 20.1906 28.842 20.0304 28.7838 19.8282C28.4607 18.7046 27.0927 17.8608 25.454 17.8608C23.8153 17.8608 22.4473 18.7046 22.1242 19.8282C22.0661 20.0304 22.3671 20.1906 22.6289 20.0993C23.2004 19.9 24.1746 19.6487 25.454 19.6487C26.7334 19.6487 27.7076 19.9 28.2791 20.0993Z" fill="black"/>
<path d="M11.7209 20.0993C11.459 20.1906 11.158 20.0304 11.2162 19.8282C11.5392 18.7046 12.9073 17.8608 14.546 17.8608C16.1847 17.8608 17.5527 18.7046 17.8758 19.8282C17.9339 20.0304 17.6329 20.1906 17.3711 20.0993C16.7996 19.9 15.8253 19.6487 14.546 19.6487C13.2666 19.6487 12.2923 19.9 11.7209 20.0993Z" fill="black"/>
</g>
<defs>
<clipPath id="clip0_310_340">
<rect width="40" height="40" fill="white"/>
</clipPath>
</defs>
</svg>
