<svg width="40" height="40" viewBox="0 0 40 40" fill="none" xmlns="http://www.w3.org/2000/svg">
<g clip-path="url(#clip0_310_278)">
<path d="M24.4825 35.0834L32.0463 35.1103C35.1745 35.1215 36.0578 30.8289 33.1793 29.604L32.6802 29.3916C30.9549 28.4775 31.425 25.8869 33.3614 25.6373L36.7296 25.203C38.0225 25.0363 38.6262 23.5117 37.798 22.505L37.3599 21.9725C36.87 21.3772 36.6138 20.6267 36.6335 19.8559C36.6371 19.7142 36.6389 19.5721 36.6389 19.4296C36.6389 9.73945 28.25 2.00866 18.3384 3.10358C10.7259 3.94452 4.60584 10.1524 3.86067 17.7748C3.76942 18.7083 3.75635 19.6277 3.8157 20.5273C3.87008 21.3516 3.59242 22.1612 3.06151 22.794L2.69489 23.231C1.01056 25.2386 1.87275 28.3118 4.35556 29.1503L8.80689 30.6536C9.56372 30.9092 9.97351 31.7266 9.72548 32.486L9.63729 32.7559C8.72058 35.5625 11.7393 38.0262 14.3052 36.5656L15.0414 36.1466C16.0056 35.5977 17.0817 35.2731 18.1895 35.2111C19.4485 35.1407 21.4639 35.0727 24.4825 35.0834Z" fill="#FFC84D"/>
<path d="M25.5486 26.6547C25.608 26.6329 25.6077 26.5552 25.5448 26.5496C23.8906 26.481 22.339 26.3902 21.3524 26.1771C17.7839 25.3881 14.9466 23.5014 13.9564 20.1643L13.6458 19.1174C13.5843 18.9103 13.8956 18.724 13.9904 18.9181C15.0114 21.008 20.7769 25.1788 28.0586 26.3181C28.0586 26.3181 28.7462 27.0009 25.4389 27.8061C24.5521 28.022 23.434 28.211 22.7221 28.3222C22.5277 28.3525 22.4995 28.6196 22.6822 28.6926C24.152 29.4228 27.048 29.9596 29.5217 30.3511C27.3472 30.3525 26.1246 30.5757 23.4484 29.9404C22.2905 29.6054 21.7236 29.3878 21.0311 28.8803C20.1801 28.2565 20.6226 27.5718 21.1991 27.4546C22.3984 27.2108 24.4124 27.0708 25.5486 26.6547Z" fill="#FF8800"/>
<path d="M19.3165 14.9331C20.0085 13.6318 19.7597 12.1462 18.7608 11.615C17.7618 11.0838 16.391 11.7081 15.699 13.0095C15.007 14.3108 15.2559 15.7964 16.2548 16.3276C17.2537 16.8588 18.6245 16.2345 19.3165 14.9331Z" fill="black"/>
<path d="M27.6311 19.5798C28.0108 18.1557 27.4324 16.7649 26.3392 16.4734C25.246 16.1819 24.052 17.1001 23.6722 18.5242C23.2925 19.9483 23.8709 21.3391 24.9641 21.6306C26.0573 21.9221 27.2513 21.0039 27.6311 19.5798Z" fill="black"/>
</g>
<defs>
<clipPath id="clip0_310_278">
<rect width="40" height="40" fill="white"/>
</clipPath>
</defs>
</svg>
